<svg xmlns="http://www.w3.org/2000/svg" viewBox="0 0 180 180" shape-rendering="crispEdges">
  <rect width="180" height="180" rx="32" fill="#2b6b66"/>
  <rect x="28" y="130" width="124" height="14" fill="#6b3f22"/>
  <rect x="34" y="116" width="112" height="17" fill="#f4c146"/>
  <rect x="25" y="102" width="130" height="17" fill="#4f9f55"/>
  <rect x="37" y="88" width="22" height="12" fill="#e5483f"/>
  <rect x="70" y="88" width="22" height="12" fill="#e5483f"/>
  <rect x="104" y="88" width="22" height="12" fill="#e5483f"/>
  <rect x="31" y="76" width="118" height="15" fill="#7a4324"/>
  <rect x="37" y="56" width="106" height="25" fill="#e99a3e"/>
  <rect x="45" y="45" width="90" height="14" fill="#f4b24f"/>
  <rect x="62" y="39" width="56" height="9" fill="#ffd36a"/>
  <rect x="62" y="51" width="9" height="6" fill="#fff2b8"/>
  <rect x="87" y="48" width="9" height="6" fill="#fff2b8"/>
  <rect x="112" y="51" width="9" height="6" fill="#fff2b8"/>
  <rect x="39" y="144" width="102" height="8" fill="#f0a94a"/>
  <rect x="48" y="152" width="84" height="6" fill="#c97635"/>
</svg>
