<svg xmlns="http://www.w3.org/2000/svg" viewBox="0 0 512 512" shape-rendering="crispEdges">
  <rect width="512" height="512" rx="64" fill="#2b6b66"/>
  <rect x="80" y="368" width="352" height="40" fill="#6b3f22"/>
  <rect x="96" y="328" width="320" height="48" fill="#f4c146"/>
  <rect x="72" y="288" width="368" height="48" fill="#4f9f55"/>
  <rect x="104" y="248" width="64" height="32" fill="#e5483f"/>
  <rect x="200" y="248" width="64" height="32" fill="#e5483f"/>
  <rect x="296" y="248" width="64" height="32" fill="#e5483f"/>
  <rect x="88" y="216" width="336" height="40" fill="#7a4324"/>
  <rect x="104" y="160" width="304" height="72" fill="#e99a3e"/>
  <rect x="128" y="128" width="256" height="40" fill="#f4b24f"/>
  <rect x="176" y="112" width="160" height="24" fill="#ffd36a"/>
  <rect x="176" y="144" width="24" height="16" fill="#fff2b8"/>
  <rect x="248" y="136" width="24" height="16" fill="#fff2b8"/>
  <rect x="320" y="144" width="24" height="16" fill="#fff2b8"/>
  <rect x="112" y="408" width="288" height="24" fill="#f0a94a"/>
  <rect x="136" y="432" width="240" height="16" fill="#c97635"/>
</svg>
